<mxfile host="app.diagrams.net" agent="Mozilla/5.0 (Windows NT 10.0; Win64; x64) AppleWebKit/537.36 (KHTML, like Gecko) Chrome/129.0.0.0 Safari/537.36" version="24.7.17" pages="2">
  <diagram name="LinearSearch" id="G0WEQmna6oLNPH6eOhdc">
    <mxGraphModel dx="1235" dy="655" grid="1" gridSize="10" guides="1" tooltips="1" connect="1" arrows="1" fold="1" page="1" pageScale="1" pageWidth="850" pageHeight="1100" math="0" shadow="0">
      <root>
        <mxCell id="0" />
        <mxCell id="1" parent="0" />
        <mxCell id="YIhzFpR-38G1o0PuN3Df-3" value="" style="edgeStyle=orthogonalEdgeStyle;rounded=0;orthogonalLoop=1;jettySize=auto;html=1;" edge="1" parent="1" source="YIhzFpR-38G1o0PuN3Df-1" target="YIhzFpR-38G1o0PuN3Df-2">
          <mxGeometry relative="1" as="geometry" />
        </mxCell>
        <mxCell id="YIhzFpR-38G1o0PuN3Df-1" value="START" style="ellipse;whiteSpace=wrap;html=1;" vertex="1" parent="1">
          <mxGeometry x="365" width="120" height="80" as="geometry" />
        </mxCell>
        <mxCell id="YIhzFpR-38G1o0PuN3Df-5" value="" style="edgeStyle=orthogonalEdgeStyle;rounded=0;orthogonalLoop=1;jettySize=auto;html=1;" edge="1" parent="1" source="YIhzFpR-38G1o0PuN3Df-2" target="YIhzFpR-38G1o0PuN3Df-4">
          <mxGeometry relative="1" as="geometry" />
        </mxCell>
        <mxCell id="YIhzFpR-38G1o0PuN3Df-2" value="int[] ints;&lt;div&gt;int n;&lt;/div&gt;&lt;div&gt;bool netice = False;&lt;/div&gt;" style="shape=parallelogram;perimeter=parallelogramPerimeter;whiteSpace=wrap;html=1;fixedSize=1;" vertex="1" parent="1">
          <mxGeometry x="340" y="120" width="170" height="60" as="geometry" />
        </mxCell>
        <mxCell id="YIhzFpR-38G1o0PuN3Df-7" value="" style="edgeStyle=orthogonalEdgeStyle;rounded=0;orthogonalLoop=1;jettySize=auto;html=1;" edge="1" parent="1" source="YIhzFpR-38G1o0PuN3Df-4" target="YIhzFpR-38G1o0PuN3Df-6">
          <mxGeometry relative="1" as="geometry" />
        </mxCell>
        <mxCell id="YIhzFpR-38G1o0PuN3Df-13" style="edgeStyle=orthogonalEdgeStyle;rounded=0;orthogonalLoop=1;jettySize=auto;html=1;" edge="1" parent="1" source="YIhzFpR-38G1o0PuN3Df-4" target="YIhzFpR-38G1o0PuN3Df-12">
          <mxGeometry relative="1" as="geometry">
            <Array as="points">
              <mxPoint x="550" y="270" />
              <mxPoint x="550" y="540" />
              <mxPoint x="425" y="540" />
            </Array>
          </mxGeometry>
        </mxCell>
        <mxCell id="YIhzFpR-38G1o0PuN3Df-23" value="False" style="edgeLabel;html=1;align=center;verticalAlign=middle;resizable=0;points=[];" vertex="1" connectable="0" parent="YIhzFpR-38G1o0PuN3Df-13">
          <mxGeometry x="-0.5506" y="3" relative="1" as="geometry">
            <mxPoint as="offset" />
          </mxGeometry>
        </mxCell>
        <mxCell id="YIhzFpR-38G1o0PuN3Df-4" value="for(int i=0;i&amp;lt;ints.Length;i++)" style="rhombus;whiteSpace=wrap;html=1;" vertex="1" parent="1">
          <mxGeometry x="320" y="230" width="210" height="80" as="geometry" />
        </mxCell>
        <mxCell id="YIhzFpR-38G1o0PuN3Df-25" value="" style="edgeStyle=orthogonalEdgeStyle;rounded=0;orthogonalLoop=1;jettySize=auto;html=1;" edge="1" parent="1" source="YIhzFpR-38G1o0PuN3Df-6" target="YIhzFpR-38G1o0PuN3Df-24">
          <mxGeometry relative="1" as="geometry" />
        </mxCell>
        <mxCell id="YIhzFpR-38G1o0PuN3Df-6" value="if ints[i]==n" style="rhombus;whiteSpace=wrap;html=1;" vertex="1" parent="1">
          <mxGeometry x="385" y="370" width="80" height="80" as="geometry" />
        </mxCell>
        <mxCell id="YIhzFpR-38G1o0PuN3Df-15" value="" style="edgeStyle=orthogonalEdgeStyle;rounded=0;orthogonalLoop=1;jettySize=auto;html=1;" edge="1" parent="1" source="YIhzFpR-38G1o0PuN3Df-12" target="YIhzFpR-38G1o0PuN3Df-14">
          <mxGeometry relative="1" as="geometry" />
        </mxCell>
        <mxCell id="YIhzFpR-38G1o0PuN3Df-18" value="True" style="edgeLabel;html=1;align=center;verticalAlign=middle;resizable=0;points=[];" vertex="1" connectable="0" parent="YIhzFpR-38G1o0PuN3Df-15">
          <mxGeometry x="-0.0571" relative="1" as="geometry">
            <mxPoint as="offset" />
          </mxGeometry>
        </mxCell>
        <mxCell id="YIhzFpR-38G1o0PuN3Df-17" style="edgeStyle=orthogonalEdgeStyle;rounded=0;orthogonalLoop=1;jettySize=auto;html=1;entryX=0.5;entryY=0;entryDx=0;entryDy=0;" edge="1" parent="1" source="YIhzFpR-38G1o0PuN3Df-12" target="YIhzFpR-38G1o0PuN3Df-16">
          <mxGeometry relative="1" as="geometry" />
        </mxCell>
        <mxCell id="YIhzFpR-38G1o0PuN3Df-19" value="False" style="edgeLabel;html=1;align=center;verticalAlign=middle;resizable=0;points=[];" vertex="1" connectable="0" parent="YIhzFpR-38G1o0PuN3Df-17">
          <mxGeometry x="-0.4494" y="-1" relative="1" as="geometry">
            <mxPoint as="offset" />
          </mxGeometry>
        </mxCell>
        <mxCell id="YIhzFpR-38G1o0PuN3Df-12" value="netice==true" style="rhombus;whiteSpace=wrap;html=1;" vertex="1" parent="1">
          <mxGeometry x="385" y="570" width="80" height="80" as="geometry" />
        </mxCell>
        <mxCell id="YIhzFpR-38G1o0PuN3Df-22" style="edgeStyle=orthogonalEdgeStyle;rounded=0;orthogonalLoop=1;jettySize=auto;html=1;" edge="1" parent="1" source="YIhzFpR-38G1o0PuN3Df-14" target="YIhzFpR-38G1o0PuN3Df-20">
          <mxGeometry relative="1" as="geometry" />
        </mxCell>
        <mxCell id="YIhzFpR-38G1o0PuN3Df-14" value="&quot;Found&quot;" style="shape=document;whiteSpace=wrap;html=1;boundedLbl=1;" vertex="1" parent="1">
          <mxGeometry x="365" y="680" width="120" height="80" as="geometry" />
        </mxCell>
        <mxCell id="YIhzFpR-38G1o0PuN3Df-21" style="edgeStyle=orthogonalEdgeStyle;rounded=0;orthogonalLoop=1;jettySize=auto;html=1;entryX=0;entryY=0.5;entryDx=0;entryDy=0;" edge="1" parent="1" source="YIhzFpR-38G1o0PuN3Df-16" target="YIhzFpR-38G1o0PuN3Df-20">
          <mxGeometry relative="1" as="geometry">
            <Array as="points">
              <mxPoint x="240" y="890" />
            </Array>
          </mxGeometry>
        </mxCell>
        <mxCell id="YIhzFpR-38G1o0PuN3Df-16" value="&quot;Not Found&quot;" style="shape=document;whiteSpace=wrap;html=1;boundedLbl=1;" vertex="1" parent="1">
          <mxGeometry x="180" y="680" width="120" height="80" as="geometry" />
        </mxCell>
        <mxCell id="YIhzFpR-38G1o0PuN3Df-20" value="END" style="ellipse;whiteSpace=wrap;html=1;" vertex="1" parent="1">
          <mxGeometry x="365" y="850" width="120" height="80" as="geometry" />
        </mxCell>
        <mxCell id="YIhzFpR-38G1o0PuN3Df-27" style="edgeStyle=orthogonalEdgeStyle;rounded=0;orthogonalLoop=1;jettySize=auto;html=1;entryX=0;entryY=0.5;entryDx=0;entryDy=0;" edge="1" parent="1" source="YIhzFpR-38G1o0PuN3Df-24" target="YIhzFpR-38G1o0PuN3Df-4">
          <mxGeometry relative="1" as="geometry" />
        </mxCell>
        <mxCell id="YIhzFpR-38G1o0PuN3Df-24" value="netice=True" style="rounded=0;whiteSpace=wrap;html=1;" vertex="1" parent="1">
          <mxGeometry x="230" y="380" width="120" height="60" as="geometry" />
        </mxCell>
      </root>
    </mxGraphModel>
  </diagram>
  <diagram id="f9INRWgxMCoLh0mA2Cgp" name="SelectionSort">
    <mxGraphModel dx="1050" dy="557" grid="1" gridSize="10" guides="1" tooltips="1" connect="1" arrows="1" fold="1" page="1" pageScale="1" pageWidth="850" pageHeight="1100" math="0" shadow="0">
      <root>
        <mxCell id="0" />
        <mxCell id="1" parent="0" />
        <mxCell id="8p7MROGhX7HhCjWnypel-4" value="" style="edgeStyle=orthogonalEdgeStyle;rounded=0;orthogonalLoop=1;jettySize=auto;html=1;" edge="1" parent="1" source="8p7MROGhX7HhCjWnypel-1" target="8p7MROGhX7HhCjWnypel-3">
          <mxGeometry relative="1" as="geometry" />
        </mxCell>
        <mxCell id="8p7MROGhX7HhCjWnypel-1" value="START" style="ellipse;whiteSpace=wrap;html=1;" vertex="1" parent="1">
          <mxGeometry x="365" width="120" height="80" as="geometry" />
        </mxCell>
        <mxCell id="8p7MROGhX7HhCjWnypel-6" value="" style="edgeStyle=orthogonalEdgeStyle;rounded=0;orthogonalLoop=1;jettySize=auto;html=1;" edge="1" parent="1" source="8p7MROGhX7HhCjWnypel-3" target="8p7MROGhX7HhCjWnypel-5">
          <mxGeometry relative="1" as="geometry" />
        </mxCell>
        <mxCell id="8p7MROGhX7HhCjWnypel-3" value="int[] num;" style="shape=parallelogram;perimeter=parallelogramPerimeter;whiteSpace=wrap;html=1;fixedSize=1;" vertex="1" parent="1">
          <mxGeometry x="365" y="120" width="120" height="60" as="geometry" />
        </mxCell>
        <mxCell id="8p7MROGhX7HhCjWnypel-10" value="" style="edgeStyle=orthogonalEdgeStyle;rounded=0;orthogonalLoop=1;jettySize=auto;html=1;" edge="1" parent="1" source="8p7MROGhX7HhCjWnypel-5" target="8p7MROGhX7HhCjWnypel-9">
          <mxGeometry relative="1" as="geometry" />
        </mxCell>
        <mxCell id="8p7MROGhX7HhCjWnypel-37" value="True" style="edgeLabel;html=1;align=center;verticalAlign=middle;resizable=0;points=[];" vertex="1" connectable="0" parent="8p7MROGhX7HhCjWnypel-10">
          <mxGeometry x="-0.1" y="2" relative="1" as="geometry">
            <mxPoint as="offset" />
          </mxGeometry>
        </mxCell>
        <mxCell id="8p7MROGhX7HhCjWnypel-21" style="edgeStyle=orthogonalEdgeStyle;rounded=0;orthogonalLoop=1;jettySize=auto;html=1;entryX=0.5;entryY=0;entryDx=0;entryDy=0;exitX=1;exitY=0.5;exitDx=0;exitDy=0;" edge="1" parent="1" source="8p7MROGhX7HhCjWnypel-5" target="8p7MROGhX7HhCjWnypel-20">
          <mxGeometry relative="1" as="geometry">
            <Array as="points">
              <mxPoint x="740" y="270" />
              <mxPoint x="740" y="800" />
              <mxPoint x="420" y="800" />
            </Array>
          </mxGeometry>
        </mxCell>
        <mxCell id="8p7MROGhX7HhCjWnypel-38" value="False" style="edgeLabel;html=1;align=center;verticalAlign=middle;resizable=0;points=[];" vertex="1" connectable="0" parent="8p7MROGhX7HhCjWnypel-21">
          <mxGeometry x="-0.1238" y="2" relative="1" as="geometry">
            <mxPoint as="offset" />
          </mxGeometry>
        </mxCell>
        <mxCell id="8p7MROGhX7HhCjWnypel-5" value="for(int i = 0; i &amp;lt; num.Length-1; i++)" style="rhombus;whiteSpace=wrap;html=1;" vertex="1" parent="1">
          <mxGeometry x="300" y="220" width="250" height="100" as="geometry" />
        </mxCell>
        <mxCell id="8p7MROGhX7HhCjWnypel-12" value="" style="edgeStyle=orthogonalEdgeStyle;rounded=0;orthogonalLoop=1;jettySize=auto;html=1;" edge="1" parent="1" source="8p7MROGhX7HhCjWnypel-9" target="8p7MROGhX7HhCjWnypel-11">
          <mxGeometry relative="1" as="geometry" />
        </mxCell>
        <mxCell id="8p7MROGhX7HhCjWnypel-9" value="int min=i;" style="rounded=0;whiteSpace=wrap;html=1;" vertex="1" parent="1">
          <mxGeometry x="365" y="360" width="120" height="60" as="geometry" />
        </mxCell>
        <mxCell id="8p7MROGhX7HhCjWnypel-14" value="" style="edgeStyle=orthogonalEdgeStyle;rounded=0;orthogonalLoop=1;jettySize=auto;html=1;" edge="1" parent="1" source="8p7MROGhX7HhCjWnypel-11" target="8p7MROGhX7HhCjWnypel-13">
          <mxGeometry relative="1" as="geometry" />
        </mxCell>
        <mxCell id="8p7MROGhX7HhCjWnypel-39" value="True" style="edgeLabel;html=1;align=center;verticalAlign=middle;resizable=0;points=[];" vertex="1" connectable="0" parent="8p7MROGhX7HhCjWnypel-14">
          <mxGeometry x="0.2" y="1" relative="1" as="geometry">
            <mxPoint as="offset" />
          </mxGeometry>
        </mxCell>
        <mxCell id="8p7MROGhX7HhCjWnypel-29" value="" style="edgeStyle=orthogonalEdgeStyle;rounded=0;orthogonalLoop=1;jettySize=auto;html=1;" edge="1" parent="1" source="8p7MROGhX7HhCjWnypel-11" target="8p7MROGhX7HhCjWnypel-28">
          <mxGeometry relative="1" as="geometry" />
        </mxCell>
        <mxCell id="8p7MROGhX7HhCjWnypel-40" value="False" style="edgeLabel;html=1;align=center;verticalAlign=middle;resizable=0;points=[];" vertex="1" connectable="0" parent="8p7MROGhX7HhCjWnypel-29">
          <mxGeometry x="-0.14" y="-2" relative="1" as="geometry">
            <mxPoint as="offset" />
          </mxGeometry>
        </mxCell>
        <mxCell id="8p7MROGhX7HhCjWnypel-11" value="for(int j = i+1;j &amp;lt; num.Length; j++)" style="rhombus;whiteSpace=wrap;html=1;" vertex="1" parent="1">
          <mxGeometry x="300" y="460" width="250" height="100" as="geometry" />
        </mxCell>
        <mxCell id="8p7MROGhX7HhCjWnypel-17" value="" style="edgeStyle=orthogonalEdgeStyle;rounded=0;orthogonalLoop=1;jettySize=auto;html=1;" edge="1" parent="1" source="8p7MROGhX7HhCjWnypel-13" target="8p7MROGhX7HhCjWnypel-16">
          <mxGeometry relative="1" as="geometry" />
        </mxCell>
        <mxCell id="8p7MROGhX7HhCjWnypel-22" value="true" style="edgeLabel;html=1;align=center;verticalAlign=middle;resizable=0;points=[];" vertex="1" connectable="0" parent="8p7MROGhX7HhCjWnypel-17">
          <mxGeometry x="-0.36" y="-1" relative="1" as="geometry">
            <mxPoint as="offset" />
          </mxGeometry>
        </mxCell>
        <mxCell id="8p7MROGhX7HhCjWnypel-26" style="edgeStyle=orthogonalEdgeStyle;rounded=0;orthogonalLoop=1;jettySize=auto;html=1;" edge="1" parent="1" source="8p7MROGhX7HhCjWnypel-13">
          <mxGeometry relative="1" as="geometry">
            <mxPoint x="590" y="630" as="targetPoint" />
            <Array as="points">
              <mxPoint x="590" y="630" />
            </Array>
          </mxGeometry>
        </mxCell>
        <mxCell id="8p7MROGhX7HhCjWnypel-27" value="False" style="edgeLabel;html=1;align=center;verticalAlign=middle;resizable=0;points=[];" vertex="1" connectable="0" parent="8p7MROGhX7HhCjWnypel-26">
          <mxGeometry x="0.0062" y="-5" relative="1" as="geometry">
            <mxPoint x="-2" as="offset" />
          </mxGeometry>
        </mxCell>
        <mxCell id="8p7MROGhX7HhCjWnypel-13" value="&amp;nbsp;if (num[j] &amp;lt; num[min])" style="rhombus;whiteSpace=wrap;html=1;" vertex="1" parent="1">
          <mxGeometry x="340" y="590" width="170" height="80" as="geometry" />
        </mxCell>
        <mxCell id="8p7MROGhX7HhCjWnypel-24" style="edgeStyle=orthogonalEdgeStyle;rounded=0;orthogonalLoop=1;jettySize=auto;html=1;entryX=1;entryY=0.5;entryDx=0;entryDy=0;" edge="1" parent="1" source="8p7MROGhX7HhCjWnypel-16" target="8p7MROGhX7HhCjWnypel-11">
          <mxGeometry relative="1" as="geometry">
            <Array as="points">
              <mxPoint x="590" y="740" />
              <mxPoint x="590" y="510" />
            </Array>
          </mxGeometry>
        </mxCell>
        <mxCell id="8p7MROGhX7HhCjWnypel-16" value="min=j;" style="rounded=0;whiteSpace=wrap;html=1;" vertex="1" parent="1">
          <mxGeometry x="365" y="710" width="120" height="60" as="geometry" />
        </mxCell>
        <mxCell id="8p7MROGhX7HhCjWnypel-34" value="" style="edgeStyle=orthogonalEdgeStyle;rounded=0;orthogonalLoop=1;jettySize=auto;html=1;" edge="1" parent="1" source="8p7MROGhX7HhCjWnypel-20" target="8p7MROGhX7HhCjWnypel-33">
          <mxGeometry relative="1" as="geometry" />
        </mxCell>
        <mxCell id="8p7MROGhX7HhCjWnypel-36" style="edgeStyle=orthogonalEdgeStyle;rounded=0;orthogonalLoop=1;jettySize=auto;html=1;" edge="1" parent="1" source="8p7MROGhX7HhCjWnypel-20" target="8p7MROGhX7HhCjWnypel-31">
          <mxGeometry relative="1" as="geometry">
            <Array as="points">
              <mxPoint x="580" y="855" />
              <mxPoint x="580" y="1050" />
              <mxPoint x="420" y="1050" />
            </Array>
          </mxGeometry>
        </mxCell>
        <mxCell id="8p7MROGhX7HhCjWnypel-20" value="for (int i = 0;i &amp;lt; num.Length; i++)" style="rhombus;whiteSpace=wrap;html=1;" vertex="1" parent="1">
          <mxGeometry x="320" y="810" width="200" height="90" as="geometry" />
        </mxCell>
        <mxCell id="8p7MROGhX7HhCjWnypel-30" style="edgeStyle=orthogonalEdgeStyle;rounded=0;orthogonalLoop=1;jettySize=auto;html=1;entryX=0;entryY=0.5;entryDx=0;entryDy=0;" edge="1" parent="1" source="8p7MROGhX7HhCjWnypel-28" target="8p7MROGhX7HhCjWnypel-5">
          <mxGeometry relative="1" as="geometry">
            <Array as="points">
              <mxPoint x="160" y="270" />
            </Array>
          </mxGeometry>
        </mxCell>
        <mxCell id="8p7MROGhX7HhCjWnypel-28" value="&lt;div&gt;&amp;nbsp; &amp;nbsp; var temp = num[i];&lt;/div&gt;&lt;div&gt;&amp;nbsp; &amp;nbsp; num[i] = num[min];&lt;/div&gt;&lt;div&gt;&amp;nbsp; &amp;nbsp; num[min] = temp;&lt;/div&gt;" style="whiteSpace=wrap;html=1;" vertex="1" parent="1">
          <mxGeometry x="100" y="480" width="120" height="60" as="geometry" />
        </mxCell>
        <mxCell id="8p7MROGhX7HhCjWnypel-31" value="End" style="ellipse;whiteSpace=wrap;html=1;" vertex="1" parent="1">
          <mxGeometry x="360" y="1060" width="120" height="80" as="geometry" />
        </mxCell>
        <mxCell id="8p7MROGhX7HhCjWnypel-35" style="edgeStyle=orthogonalEdgeStyle;rounded=0;orthogonalLoop=1;jettySize=auto;html=1;entryX=0;entryY=0.5;entryDx=0;entryDy=0;" edge="1" parent="1" source="8p7MROGhX7HhCjWnypel-33" target="8p7MROGhX7HhCjWnypel-20">
          <mxGeometry relative="1" as="geometry">
            <Array as="points">
              <mxPoint x="300" y="970" />
              <mxPoint x="300" y="855" />
            </Array>
          </mxGeometry>
        </mxCell>
        <mxCell id="8p7MROGhX7HhCjWnypel-33" value="num[i]+&quot; &quot;;" style="shape=document;whiteSpace=wrap;html=1;boundedLbl=1;" vertex="1" parent="1">
          <mxGeometry x="360" y="930" width="120" height="80" as="geometry" />
        </mxCell>
      </root>
    </mxGraphModel>
  </diagram>
</mxfile>
